<?xml version="1.0" encoding="UTF-8"?>
<svg id="Layer_2" data-name="Layer 2" xmlns="http://www.w3.org/2000/svg" xmlns:xlink="http://www.w3.org/1999/xlink" viewBox="0 0 416.16 123.14">
  <defs>
    <style>
      .cls-1 {
        fill: none;
      }

      .cls-2 {
        clip-path: url(#clippath);
      }

      .cls-3 {
        fill: #fff;
      }

      .cls-4 {
        fill: #848586;
      }

      .cls-5 {
        fill: #94c7c8;
      }

      .cls-6 {
        clip-path: url(#clippath-1);
      }
    </style>
    <clipPath id="clippath">
      <rect class="cls-1" width="416.16" height="123.14"/>
    </clipPath>
    <clipPath id="clippath-1">
      <rect class="cls-1" y="0" width="416.16" height="123.14"/>
    </clipPath>
  </defs>
  <g id="Layer_1-2" data-name="Layer 1">
    <g id="Artwork_28" data-name="Artwork 28">
      <g class="cls-2">
        <g class="cls-6">
          <path class="cls-5" d="m240.48,62.25l-.06.15c.72,1.93,10.54,26.51,47.92,19.62l.05-.15c-23.9-32.02-46.28-20.54-47.91-19.62"/>
          <path class="cls-3" d="m275.72,84.37c-27.45,0-35.42-19.11-36.34-21.57l-.14-.39.28-.78.42-.36c1-.55,24.7-13.11,49.36,19.94l.35.47-.42,1.18-.68.27c-4.69.86-8.96,1.24-12.83,1.24m-33.91-21.53c2.07,4.76,12.41,23.59,44.67,18.37-20.94-27.02-40.5-20.26-44.67-18.37"/>
          <path class="cls-5" d="m240.95,62.18l.06.16c-.67,1.94-9.98,26.76-47.5,20.79l-.05-.14c23.22-32.61,45.84-21.67,47.49-20.8"/>
          <path class="cls-3" d="m204.48,85.15c-3.42,0-7.13-.28-11.15-.93l-.67-.1-.4-1.19.28-.6c23.54-33.04,46.4-22.46,48.93-21.15l.39.2.33.94-.12.37c-.35,1.01-8.09,22.45-37.59,22.45m-9.13-2.88c32.51,4.47,42.35-14.68,44.29-19.47-4.57-2.02-23.82-8.21-44.29,19.47"/>
          <path class="cls-5" d="m240.81,61.33l-.15.06c-.82,1.87-10.73,26.41,19.37,51.43l.14-.06c5.36-40.79-17.64-50.75-19.36-51.44"/>
          <path class="cls-3" d="m259.97,114.07l-.66-.38c-30.43-25.28-20.88-50-19.69-52.74l.18-.42.83-.35.57.11c2.62,1.04,25.48,11.36,20.06,52.62l-.08.65-1.22.51Zm-18.67-51.27c-1.87,5.12-7.28,26,17.98,47.93,3.89-34.7-13.65-45.76-17.98-47.93"/>
          <path class="cls-5" d="m241.11,62.33l-.11.11c-.09,2.08-.46,28.87,36.23,39.29l.09-.11c-9.62-39.85-34.37-39.38-36.21-39.29"/>
          <path class="cls-3" d="m277.7,102.88l-.78-.08c-37.87-10.75-37.09-39.2-37.04-40.41l.02-.4.58-.65.57-.14c2.82-.15,27.62-.21,37.36,40.14l.13.57-.85.96Zm-35.58-39.44c.14,4.94,2.51,27.08,33.68,36.69-8.79-33.75-28.99-36.52-33.68-36.69"/>
          <path class="cls-5" d="m240.46,61.86l.15.06c.8,1.88,10.53,26.51-19.75,51.27l-.14-.06c-5.06-40.84,18.01-50.6,19.74-51.27"/>
          <path class="cls-3" d="m221.02,114.49l-1.21-.53-.21-.7c-5.2-42.02,19.4-52.04,20.45-52.44l.43-.16.97.4.17.43c1.17,2.75,10.54,27.55-20.07,52.57l-.54.43Zm18.92-51.17c-4.35,2.14-21.97,13.03-18.33,47.78,25.42-21.71,20.16-42.64,18.33-47.78"/>
          <path class="cls-5" d="m240.98,62.36l.11.12c.09,2.08.46,28.86-36.22,39.28l-.1-.1c9.62-39.86,34.38-39.39,36.21-39.3"/>
          <path class="cls-3" d="m204.52,103.03l-.87-.94.04-.69c9.74-40.35,34.59-40.28,37.36-40.15l.47.02.69.77v.41c.14,3.03.14,29.85-37.03,40.4l-.66.19Zm35.47-39.54c-4.68.17-24.89,2.91-33.69,36.69,31.3-9.63,33.61-31.32,33.69-36.69"/>
          <path class="cls-5" d="m241.01,59.53h-.18c-1.6,1.58-21.66,22.56.02,62.48h.16c21.7-39.99,1.54-60.97,0-62.48"/>
          <path class="cls-3" d="m241.68,123.14h-1.33l-.48-.58c-21.85-40.28-2.14-61.53.18-63.82l.33-.32h.92l.5.32c.93.91,22.47,22.78.2,63.82l-.32.58Zm-.77-62.07c-3.89,4.34-18.19,23.72.02,58.72,18.13-34.89,3.51-54.7-.02-58.72"/>
          <path class="cls-5" d="m240.95,60.89v-.17c-1.29-1.53-18.48-20.76-51.22.02v.15c32.79,20.81,49.98,1.47,51.22,0"/>
          <path class="cls-3" d="m217.97,71.52c-7.78,0-17.41-2.43-28.84-9.68l-.53-.33v-1.23l.53-.49c33.81-21.46,51.93-.68,52.68.21l.27.31v.82l-.27.48c-.5.59-8.6,9.91-23.84,9.91m-26.24-10.71c28.57,17.38,44.34,3.66,47.8,0-3.47-3.66-19.22-17.39-47.8,0"/>
          <path class="cls-5" d="m240.95,60.89l.06-.15c-.71-1.93-10.53-26.51-47.92-19.62l-.05.15c23.9,32.02,46.28,20.53,47.91,19.62"/>
          <path class="cls-3" d="m228.92,64.65c-9.39,0-22.94-4.17-36.78-22.72l-.36-.47.42-1.18.69-.27c37.97-6.99,48.13,17.52,49.17,20.33l.14.38-.28.78-.43.36c-.44.23-5.23,2.78-12.57,2.78m-33.97-22.73c20.94,27.01,40.5,20.26,44.67,18.38-2.05-4.77-12.36-23.62-44.67-18.38"/>
          <path class="cls-5" d="m240.48,60.96v-.17c1.29-1.53,18.49-20.76,51.22.02v.16c-32.78,20.8-49.98,1.47-51.22,0"/>
          <path class="cls-3" d="m263.25,71.73c-14.51,0-22.39-8.58-23.62-10.04l-.26-.31v-.99l.26-.31c1.88-2.24,19.44-21.31,52.68-.21l.52.33v1.22l-.52.49c-11.59,7.36-21.28,9.82-29.05,9.82m-21.34-10.85c3.46,3.66,19.25,17.37,47.8,0-28.59-17.38-44.34-3.66-47.8,0"/>
          <path class="cls-5" d="m240.48,60.96l-.06-.16c.67-1.94,9.98-26.76,47.51-20.79l.05.15c-23.22,32.6-45.84,21.67-47.5,20.8"/>
          <path class="cls-3" d="m252.02,64.59c-6.53,0-11.01-2.1-12.05-2.64l-.4-.2-.33-.95.12-.37c.98-2.84,10.73-27.6,48.74-21.52l.65.1.42,1.18-.29.62c-13.87,19.45-27.5,23.77-36.88,23.77m-10.22-4.24c4.54,2,23.83,8.17,44.29-19.47-32.42-4.47-42.34,14.67-44.29,19.47"/>
          <path class="cls-5" d="m240.64,61.81l.14-.06c.83-1.87,10.73-26.41-19.37-51.43l-.14.06c-5.35,40.79,17.64,50.76,19.37,51.44"/>
          <path class="cls-3" d="m240.78,62.96l-.57-.11c-2.62-1.04-25.47-11.39-20.06-52.62l.08-.64,1.21-.53.67.39c30.45,25.31,20.88,50.01,19.68,52.75l-.17.42-.84.35Zm-18.64-50.55c-3.88,34.69,13.65,45.76,17.98,47.94,1.87-5.12,7.29-25.99-17.98-47.94"/>
          <path class="cls-5" d="m240.32,60.81l.11-.12c.09-2.07.46-28.86-36.22-39.28l-.1.11c9.62,39.86,34.38,39.38,36.21,39.29"/>
          <path class="cls-3" d="m239.69,61.94c-4.9,0-27.48-2.12-36.67-40.16l-.14-.57.85-.96.78.08c37.18,10.55,37.17,37.37,37.04,40.4l-.02.42-.59.64-.56.14c-.16.01-.4.02-.7.02m-34.06-38.95c8.8,33.79,29.03,36.52,33.7,36.69-.08-5.36-2.38-27.05-33.7-36.69"/>
          <path class="cls-5" d="m240.97,61.28l-.14-.07c-.81-1.88-10.54-26.51,19.75-51.26l.13.06c5.06,40.84-18.01,50.6-19.75,51.27"/>
          <path class="cls-3" d="m240.94,62.49l-.96-.44-.17-.4c-1.17-2.75-10.59-27.51,20.08-52.57l.54-.44,1.2.55.21.68c5.1,41.29-17.82,51.42-20.45,52.45l-.44.17Zm18.89-50.44c-25.3,21.63-19.96,42.99-18.33,47.76,4.37-2.15,21.96-13.08,18.33-47.76"/>
          <path class="cls-5" d="m240.45,60.77l-.11-.12c-.08-2.07-.46-28.86,36.23-39.28l.09.1c-9.62,39.86-34.37,39.38-36.21,39.29"/>
          <path class="cls-3" d="m241.07,61.9c-.29,0-.52,0-.68-.01l-.47-.02-.69-.77v-.4c-.14-3.03-.15-29.85,37.02-40.4l.66-.19.88.94-.04.69c-9.19,38.05-31.78,40.16-36.68,40.16m34.06-38.94c-31.31,9.64-33.61,31.33-33.69,36.69,4.67-.17,24.89-2.91,33.69-36.69"/>
          <path class="cls-5" d="m240.42,63.61h.18c1.59-1.57,21.65-22.55-.02-62.48h-.16c-21.7,39.99-1.54,60.97,0,62.48"/>
          <path class="cls-3" d="m241.06,64.73h-.91l-.51-.32c-2.32-2.29-22.07-23.51-.2-63.82l.31-.59h1.33l.48.59c21.85,40.28,2.13,61.52-.18,63.82l-.33.33Zm-.55-61.38c-18.11,34.85-3.51,54.69.01,58.72,3.89-4.34,18.2-23.73-.01-58.72"/>
          <path class="cls-4" d="m63.34,67.62h-11.86v-17.86c0-1.82-.75-2.73-2.26-2.73s-2.22.92-2.22,2.73v17.86h-11.86v-17.64c0-4.13,1.37-7.6,4.09-10.43,2.73-2.82,6.07-4.23,10.02-4.23,4.52,0,8.15,1.63,10.89,4.92,2.13,2.56,3.2,6.12,3.2,10.68v16.69Z"/>
          <path class="cls-4" d="m98.27,53.72h-17.99c-.27-.91-.41-1.74-.41-2.5,0-1.06.19-2.09.57-3.11h6.02c-.43-2.35-1.74-3.53-3.96-3.53-1.48,0-2.69.63-3.62,1.89-.92,1.26-1.39,2.87-1.39,4.84s.45,3.71,1.35,4.98c.9,1.27,2.08,1.9,3.54,1.9,1.19,0,2.33-.59,3.43-1.78l6.76,8.12c-3.14,2.47-6.65,3.71-10.5,3.71-4.7,0-8.64-1.58-11.84-4.73-3.19-3.16-4.79-7.06-4.79-11.71s1.61-8.54,4.84-11.73c3.23-3.2,7.19-4.79,11.88-4.79s8.45,1.55,11.56,4.68c3.12,3.12,4.68,6.96,4.68,11.53,0,.46-.03,1.2-.12,2.22"/>
          <path class="cls-4" d="m117.92,35.67v12.69c-.82-.46-1.58-.7-2.25-.7-2.16,0-3.23,1.65-3.23,4.95v15.01h-11.87v-17.3c0-4.57,1.25-8.21,3.74-10.92,2.5-2.72,5.83-4.08,10-4.08.93,0,2.14.12,3.61.35"/>
          <path class="cls-4" d="m138.96,54.57v10.88c-1.71.64-3.35.96-4.92.96-3.83,0-7.08-1.45-9.73-4.35-2.65-2.9-3.97-6.44-3.97-10.63,0-4.52,1.59-8.34,4.79-11.45,3.19-3.11,7.12-4.67,11.77-4.67,2.47,0,4.84.49,7.11,1.49,2.26.99,4.04,2.32,5.32,3.99,2.17,2.78,3.24,6.79,3.24,12.06v10.4c0,5.65-1.6,10.24-4.81,13.76-3.21,3.52-7.37,5.28-12.51,5.28-1.57,0-3.55-.4-5.94-1.17v-10.79c1.55.85,3.11,1.27,4.7,1.27,2.13,0,3.79-.7,4.95-2.11,1.16-1.41,1.74-3.42,1.74-6.05v-11.89c0-3.32-1.34-4.98-4.03-4.98-1.14,0-2.14.44-3,1.32-.85.88-1.29,1.88-1.29,3.03,0,1.21.41,2.21,1.22,3.01.81.81,1.83,1.21,3.04,1.21.8,0,1.57-.19,2.31-.57"/>
          <path class="cls-4" d="m160.54,81.48v-10.31c1.61.67,3.01,1.01,4.22,1.01,3.85,0,6.34-2.16,7.48-6.5-2.07,1.23-4.1,1.84-6.09,1.84-2.94,0-5.35-1.1-7.26-3.28-1.91-2.19-2.86-4.98-2.86-8.36v-19.89h11.87v17c0,1.88.78,2.83,2.34,2.83s2.25-1.03,2.25-3.11v-16.72h11.87v28.24c0,5.27-1.48,9.52-4.44,12.75-3.54,3.85-7.8,5.77-12.82,5.77-2.2,0-4.39-.43-6.57-1.27"/>
          <path class="cls-4" d="m308.1,27.69v13.24c2.01-1.46,4.01-2.19,6.02-2.19,3.04,0,5.47,1.1,7.25,3.3,1.79,2.2,2.68,5.18,2.68,8.91v20.05h-11.87v-16.71c0-1.35-.14-2.26-.42-2.72-.29-.47-.84-.7-1.67-.7-1.33,0-2,.98-2,2.95v17.19h-11.87V27.69h11.87Z"/>
          <path class="cls-4" d="m345.91,59.13v12.27c-.97.17-1.85.26-2.66.26-4.76,0-8.73-1.57-11.9-4.7-3.17-3.13-4.75-7.06-4.75-11.77s1.6-8.48,4.81-11.68c3.2-3.19,7.1-4.79,11.69-4.79,5.12,0,9.15,1.49,12.1,4.49,2.96,2.99,4.44,7.08,4.44,12.26v15.52h-11.87v-14.66c0-1.67-.41-3-1.22-3.99-.81-.99-1.91-1.49-3.28-1.49-1.25,0-2.32.46-3.24,1.36-.91.91-1.36,1.99-1.36,3.24s.42,2.38,1.24,3.24c.82.84,1.86,1.27,3.13,1.27,1.04,0,2-.28,2.88-.83"/>
          <path class="cls-4" d="m362.77,39.81h11.86v17.86c0,1.8.75,2.69,2.25,2.69s2.22-.9,2.22-2.69v-17.86h11.86v17.64c0,4.1-1.37,7.57-4.09,10.39-2.73,2.83-6.07,4.24-10.02,4.24-4.51,0-8.13-1.64-10.89-4.92-2.13-2.56-3.2-6.11-3.2-10.65v-16.69Z"/>
          <path class="cls-4" d="m416.16,39.82v12.5c-1.67,0-2.82.31-3.44.94-.62.62-1.02,1.85-1.2,3.69-.55,6.11-2.91,10.42-7.1,12.94-2.23,1.31-5.37,1.97-9.46,1.97h-1.65v-12.56h.54c1.9,0,3.26-.4,4.07-1.19.81-.79,1.29-2.18,1.42-4.17.17-3.24.46-5.51.9-6.83.43-1.31,1.32-2.61,2.65-3.91,2.33-2.26,5.55-3.39,9.67-3.39h3.59Z"/>
          <path class="cls-4" d="m32.83,53.72H14.85c-.28-.91-.41-1.74-.41-2.5,0-1.06.18-2.09.57-3.11h6.02c-.42-2.35-1.74-3.53-3.96-3.53-1.48,0-2.69.63-3.62,1.89-.93,1.26-1.4,2.87-1.4,4.84s.46,3.71,1.35,4.98c.9,1.27,2.08,1.9,3.54,1.9,1.19,0,2.33-.59,3.42-1.78l6.76,8.12c-3.14,2.47-6.64,3.71-10.49,3.71-4.7,0-8.64-1.58-11.84-4.73C1.59,60.37,0,56.47,0,51.81s1.61-8.54,4.84-11.73c3.23-3.2,7.19-4.79,11.88-4.79s8.45,1.55,11.56,4.68c3.12,3.12,4.68,6.96,4.68,11.53,0,.46-.04,1.2-.12,2.22"/>
        </g>
      </g>
    </g>
  </g>
</svg>