<?xml version="1.0" encoding="UTF-8"?>
<svg id="Layer_2" data-name="Layer 2" xmlns="http://www.w3.org/2000/svg" xmlns:xlink="http://www.w3.org/1999/xlink" viewBox="0 0 186.37 186.37">
  <defs>
    <style>
      .cls-1 {
        fill: none;
      }

      .cls-2 {
        clip-path: url(#clippath);
      }

      .cls-3 {
        fill: #e6e7e8;
      }

      .cls-4 {
        fill: #f6afce;
      }

      .cls-5 {
        fill: #fbe1ec;
      }

      .cls-6 {
        fill: #fcfbfd;
      }

      .cls-7 {
        fill: #b58abe;
      }

      .cls-8 {
        fill: #d87ab1;
      }

      .cls-9 {
        fill: #bbb3d9;
      }

      .cls-10 {
        fill: #b03f8e;
      }

      .cls-11 {
        fill: #bc7d9f;
      }

      .cls-12 {
        fill: #06a3d2;
      }

      .cls-13 {
        fill: #18b2cb;
      }

      .cls-14 {
        fill: #6dcce2;
      }

      .cls-15 {
        fill: #895ca6;
      }

      .cls-16 {
        fill: #29838c;
      }

      .cls-17 {
        fill: #27c3e9;
      }
    </style>
    <clipPath id="clippath">
      <rect class="cls-1" x="18.19" y="39.02" width="150" height="108.33"/>
    </clipPath>
  </defs>
  <g id="Layer_1-2" data-name="Layer 1">
    <g>
      <circle class="cls-3" cx="93.19" cy="93.19" r="93.19"/>
      <g id="Artwork_69" data-name="Artwork 69">
        <g class="cls-2">
          <polygon class="cls-15" points="84.85 59.85 84.85 55.69 80.69 55.69 76.52 55.69 72.35 55.69 72.35 51.52 68.19 51.52 64.02 51.52 59.85 51.52 55.69 51.52 55.69 47.35 51.52 47.35 51.52 51.52 47.35 51.52 43.19 51.52 43.19 55.69 47.35 55.69 51.52 55.69 51.52 59.85 55.69 59.85 59.85 59.85 59.85 64.02 64.02 64.02 68.19 64.02 72.35 64.02 76.52 64.02 80.69 64.02 84.85 64.02 89.02 64.02 89.02 59.85 84.85 59.85"/>
          <rect class="cls-16" x="30.69" y="64.02" width="4.17" height="4.17"/>
          <rect class="cls-16" x="34.85" y="72.35" width="4.17" height="4.17"/>
          <rect class="cls-16" x="30.69" y="68.19" width="4.17" height="4.17"/>
          <rect class="cls-16" x="26.52" y="68.19" width="4.17" height="4.17"/>
          <rect class="cls-16" x="34.85" y="59.85" width="4.17" height="4.17"/>
          <polygon class="cls-13" points="51.52 68.19 51.52 64.02 47.35 64.02 47.35 59.85 43.19 59.85 43.19 55.69 39.02 55.69 39.02 59.85 39.02 64.02 34.85 64.02 34.85 68.19 34.85 72.35 39.02 72.35 39.02 76.52 43.19 76.52 43.19 80.69 47.35 80.69 47.35 76.52 51.52 76.52 51.52 72.35 55.69 72.35 55.69 68.19 51.52 68.19"/>
          <rect class="cls-10" x="26.52" y="76.52" width="4.17" height="4.17"/>
          <rect class="cls-10" x="34.85" y="84.85" width="4.17" height="4.17"/>
          <rect class="cls-10" x="30.69" y="80.69" width="4.17" height="4.17"/>
          <rect class="cls-10" x="39.02" y="89.02" width="4.17" height="4.17"/>
          <rect class="cls-10" x="51.52" y="101.52" width="4.17" height="4.17"/>
          <rect class="cls-10" x="72.35" y="122.35" width="4.17" height="4.17"/>
          <rect class="cls-10" x="68.19" y="118.19" width="4.17" height="4.17"/>
          <rect class="cls-10" x="47.35" y="97.35" width="4.17" height="4.17"/>
          <rect class="cls-10" x="43.19" y="93.19" width="4.17" height="4.17"/>
          <rect class="cls-10" x="76.52" y="126.52" width="4.17" height="4.17"/>
          <rect class="cls-10" x="84.85" y="134.85" width="4.17" height="4.17"/>
          <rect class="cls-10" x="80.69" y="130.69" width="4.17" height="4.17"/>
          <polygon class="cls-12" points="76.52 80.69 72.35 80.69 68.19 80.69 64.02 80.69 59.85 80.69 55.69 80.69 55.69 76.52 51.52 76.52 51.52 80.69 47.35 80.69 47.35 84.85 51.52 84.85 55.69 84.85 59.85 84.85 64.02 84.85 68.19 84.85 72.35 84.85 76.52 84.85 80.69 84.85 80.69 80.69 76.52 80.69"/>
          <rect class="cls-8" x="30.69" y="76.52" width="4.17" height="4.17"/>
          <polygon class="cls-8" points="84.85 122.35 80.69 122.35 80.69 118.19 76.52 118.19 76.52 114.02 72.35 114.02 72.35 109.85 68.19 109.85 68.19 105.69 64.02 105.69 64.02 101.52 59.85 101.52 59.85 97.35 55.69 97.35 55.69 93.19 51.52 93.19 51.52 89.02 47.35 89.02 47.35 84.85 43.19 84.85 43.19 80.69 39.02 80.69 34.85 80.69 34.85 84.85 39.02 84.85 39.02 89.02 43.19 89.02 43.19 93.19 47.35 93.19 47.35 97.35 51.52 97.35 51.52 101.52 55.69 101.52 55.69 105.69 55.69 109.85 59.85 109.85 59.85 114.02 64.02 114.02 64.02 118.19 68.19 118.19 72.35 118.19 72.35 122.35 76.52 122.35 76.52 126.52 80.69 126.52 80.69 130.69 84.85 130.69 84.85 126.52 84.85 122.35"/>
          <rect class="cls-8" x="84.85" y="130.69" width="4.17" height="4.17"/>
          <rect class="cls-11" x="68.19" y="101.52" width="4.17" height="4.17"/>
          <rect class="cls-11" x="76.52" y="109.85" width="4.17" height="4.17"/>
          <rect class="cls-11" x="72.35" y="105.69" width="4.17" height="4.17"/>
          <polygon class="cls-11" points="89.02 122.35 89.02 126.52 89.02 130.69 93.19 130.69 93.19 126.52 93.19 122.35 89.02 122.35"/>
          <polygon class="cls-11" points="68.19 93.19 72.35 93.19 76.52 93.19 76.52 89.02 72.35 89.02 68.19 89.02 64.02 89.02 59.85 89.02 55.69 89.02 55.69 93.19 59.85 93.19 59.85 97.35 64.02 97.35 64.02 93.19 68.19 93.19"/>
          <rect class="cls-11" x="64.02" y="97.35" width="4.17" height="4.17"/>
          <polygon class="cls-7" points="130.69 51.52 126.52 51.52 126.52 47.35 122.35 47.35 118.19 47.35 114.02 47.35 109.85 47.35 105.69 47.35 101.52 47.35 97.35 47.35 93.19 47.35 89.02 47.35 84.85 47.35 80.69 47.35 76.52 47.35 72.35 47.35 72.35 43.19 68.19 43.19 64.02 43.19 59.85 43.19 59.85 47.35 55.69 47.35 55.69 51.52 59.85 51.52 64.02 51.52 68.19 51.52 72.35 51.52 72.35 55.69 76.52 55.69 80.69 55.69 84.85 55.69 84.85 59.85 89.02 59.85 89.02 64.02 93.19 64.02 97.35 64.02 101.52 64.02 105.69 64.02 109.85 64.02 114.02 64.02 118.19 64.02 122.35 64.02 126.52 64.02 126.52 59.85 130.69 59.85 134.85 59.85 134.85 55.69 134.85 51.52 130.69 51.52"/>
          <polygon class="cls-14" points="151.52 68.19 151.52 64.02 147.35 64.02 147.35 59.85 143.19 59.85 139.02 59.85 134.85 59.85 134.85 64.02 130.69 64.02 126.52 64.02 126.52 68.19 130.69 68.19 130.69 72.35 134.85 72.35 134.85 76.52 139.02 76.52 139.02 80.69 143.19 80.69 143.19 76.52 147.35 76.52 151.52 76.52 151.52 72.35 155.69 72.35 155.69 68.19 151.52 68.19"/>
          <polygon class="cls-17" points="130.69 80.69 130.69 76.52 126.52 76.52 126.52 72.35 122.35 72.35 118.19 72.35 114.02 72.35 109.85 72.35 105.69 72.35 101.52 72.35 97.35 72.35 93.19 72.35 93.19 68.19 89.02 68.19 84.85 68.19 80.69 68.19 76.52 68.19 72.35 68.19 68.19 68.19 64.02 68.19 59.85 68.19 59.85 72.35 55.69 72.35 55.69 76.52 55.69 80.69 59.85 80.69 64.02 80.69 68.19 80.69 72.35 80.69 76.52 80.69 80.69 80.69 80.69 84.85 84.85 84.85 89.02 84.85 93.19 84.85 97.35 84.85 101.52 84.85 105.69 84.85 109.85 84.85 114.02 84.85 118.19 84.85 122.35 84.85 126.52 84.85 130.69 84.85 134.85 84.85 134.85 80.69 130.69 80.69"/>
          <rect class="cls-5" x="151.52" y="76.52" width="4.17" height="4.17"/>
          <polygon class="cls-5" points="143.19 80.69 143.19 84.85 139.02 84.85 139.02 89.02 134.85 89.02 134.85 93.19 130.69 93.19 130.69 97.35 126.52 97.35 126.52 101.52 122.35 101.52 122.35 105.69 118.19 105.69 118.19 109.85 114.02 109.85 114.02 114.02 109.85 114.02 109.85 118.19 105.69 118.19 105.69 122.35 101.52 122.35 101.52 126.52 101.52 130.69 105.69 130.69 105.69 126.52 109.85 126.52 114.02 126.52 114.02 122.35 118.19 122.35 118.19 118.19 122.35 118.19 122.35 114.02 122.35 109.85 126.52 109.85 126.52 105.69 130.69 105.69 130.69 101.52 134.85 101.52 134.85 97.35 139.02 97.35 139.02 93.19 143.19 93.19 143.19 89.02 147.35 89.02 147.35 84.85 151.52 84.85 151.52 80.69 147.35 80.69 143.19 80.69"/>
          <rect class="cls-5" x="97.35" y="130.69" width="4.17" height="4.17"/>
          <polygon class="cls-9" points="51.52 51.52 51.52 47.35 47.35 47.35 43.19 47.35 43.19 51.52 47.35 51.52 51.52 51.52"/>
          <polygon class="cls-9" points="47.35 55.69 43.19 55.69 43.19 59.85 47.35 59.85 51.52 59.85 51.52 55.69 47.35 55.69"/>
          <rect class="cls-9" x="51.52" y="72.35" width="4.17" height="4.17"/>
          <polygon class="cls-9" points="68.19 68.19 72.35 68.19 76.52 68.19 80.69 68.19 84.85 68.19 89.02 68.19 93.19 68.19 97.35 68.19 101.52 68.19 105.69 68.19 109.85 68.19 114.02 68.19 118.19 68.19 122.35 68.19 126.52 68.19 126.52 64.02 122.35 64.02 118.19 64.02 114.02 64.02 109.85 64.02 105.69 64.02 101.52 64.02 97.35 64.02 93.19 64.02 89.02 64.02 84.85 64.02 80.69 64.02 76.52 64.02 72.35 64.02 68.19 64.02 64.02 64.02 59.85 64.02 59.85 68.19 64.02 68.19 68.19 68.19"/>
          <rect class="cls-9" x="55.69" y="68.19" width="4.17" height="4.17"/>
          <polygon class="cls-9" points="55.69 59.85 51.52 59.85 51.52 64.02 55.69 64.02 59.85 64.02 59.85 59.85 55.69 59.85"/>
          <rect class="cls-9" x="26.52" y="64.02" width="4.17" height="4.17"/>
          <polygon class="cls-9" points="22.35 68.19 22.35 72.35 18.19 72.35 18.19 76.52 22.35 76.52 22.35 80.69 26.52 80.69 26.52 76.52 30.69 76.52 34.85 76.52 34.85 72.35 30.69 72.35 26.52 72.35 26.52 68.19 22.35 68.19"/>
          <rect class="cls-9" x="26.52" y="80.69" width="4.17" height="4.17"/>
          <polygon class="cls-9" points="39.02 76.52 34.85 76.52 34.85 80.69 39.02 80.69 43.19 80.69 43.19 76.52 39.02 76.52"/>
          <rect class="cls-9" x="30.69" y="84.85" width="4.17" height="4.17"/>
          <rect class="cls-9" x="34.85" y="89.02" width="4.17" height="4.17"/>
          <rect class="cls-9" x="39.02" y="93.19" width="4.17" height="4.17"/>
          <rect class="cls-9" x="47.35" y="101.52" width="4.17" height="4.17"/>
          <rect class="cls-9" x="51.52" y="105.69" width="4.17" height="4.17"/>
          <rect class="cls-9" x="64.02" y="101.52" width="4.17" height="4.17"/>
          <rect class="cls-9" x="55.69" y="109.85" width="4.17" height="4.17"/>
          <rect class="cls-9" x="59.85" y="114.02" width="4.17" height="4.17"/>
          <rect class="cls-9" x="64.02" y="118.19" width="4.17" height="4.17"/>
          <rect class="cls-9" x="72.35" y="109.85" width="4.17" height="4.17"/>
          <rect class="cls-9" x="68.19" y="105.69" width="4.17" height="4.17"/>
          <rect class="cls-9" x="76.52" y="114.02" width="4.17" height="4.17"/>
          <rect class="cls-9" x="68.19" y="122.35" width="4.17" height="4.17"/>
          <polygon class="cls-9" points="89.02 122.35 84.85 122.35 84.85 126.52 84.85 130.69 89.02 130.69 89.02 126.52 89.02 122.35"/>
          <rect class="cls-9" x="80.69" y="118.19" width="4.17" height="4.17"/>
          <rect class="cls-9" x="43.19" y="97.35" width="4.17" height="4.17"/>
          <rect class="cls-9" x="47.35" y="76.52" width="4.17" height="4.17"/>
          <rect class="cls-9" x="43.19" y="80.69" width="4.17" height="4.17"/>
          <rect class="cls-9" x="39.02" y="51.52" width="4.17" height="4.17"/>
          <rect class="cls-9" x="30.69" y="59.85" width="4.17" height="4.17"/>
          <rect class="cls-9" x="34.85" y="55.69" width="4.17" height="4.17"/>
          <polygon class="cls-9" points="55.69 39.02 55.69 43.19 51.52 43.19 51.52 47.35 55.69 47.35 59.85 47.35 59.85 43.19 64.02 43.19 68.19 43.19 72.35 43.19 76.52 43.19 80.69 43.19 84.85 43.19 89.02 43.19 93.19 43.19 97.35 43.19 101.52 43.19 105.69 43.19 109.85 43.19 114.02 43.19 118.19 43.19 122.35 43.19 126.52 43.19 126.52 47.35 130.69 47.35 134.85 47.35 134.85 43.19 130.69 43.19 130.69 39.02 55.69 39.02"/>
          <rect class="cls-9" x="72.35" y="126.52" width="4.17" height="4.17"/>
          <rect class="cls-9" x="80.69" y="134.85" width="4.17" height="4.17"/>
          <rect class="cls-9" x="76.52" y="130.69" width="4.17" height="4.17"/>
          <rect class="cls-9" x="59.85" y="97.35" width="4.17" height="4.17"/>
          <rect class="cls-9" x="55.69" y="93.19" width="4.17" height="4.17"/>
          <polygon class="cls-9" points="139.02 51.52 143.19 51.52 143.19 47.35 139.02 47.35 134.85 47.35 134.85 51.52 139.02 51.52"/>
          <polygon class="cls-9" points="143.19 59.85 143.19 55.69 139.02 55.69 134.85 55.69 134.85 59.85 139.02 59.85 143.19 59.85"/>
          <polygon class="cls-9" points="134.85 64.02 134.85 59.85 130.69 59.85 126.52 59.85 126.52 64.02 130.69 64.02 134.85 64.02"/>
          <rect class="cls-9" x="130.69" y="72.35" width="4.17" height="4.17"/>
          <rect class="cls-9" x="126.52" y="68.19" width="4.17" height="4.17"/>
          <rect class="cls-9" x="155.69" y="64.02" width="4.17" height="4.17"/>
          <polygon class="cls-9" points="159.85 68.19 159.85 72.35 155.69 72.35 151.52 72.35 151.52 76.52 155.69 76.52 159.85 76.52 159.85 80.69 164.02 80.69 164.02 76.52 168.19 76.52 168.19 72.35 164.02 72.35 164.02 68.19 159.85 68.19"/>
          <rect class="cls-9" x="155.69" y="80.69" width="4.17" height="4.17"/>
          <polygon class="cls-9" points="143.19 76.52 143.19 80.69 147.35 80.69 151.52 80.69 151.52 76.52 147.35 76.52 143.19 76.52"/>
          <rect class="cls-9" x="151.52" y="84.85" width="4.17" height="4.17"/>
          <rect class="cls-9" x="147.35" y="89.02" width="4.17" height="4.17"/>
          <rect class="cls-9" x="143.19" y="93.19" width="4.17" height="4.17"/>
          <rect class="cls-9" x="134.85" y="101.52" width="4.17" height="4.17"/>
          <rect class="cls-9" x="130.69" y="105.69" width="4.17" height="4.17"/>
          <rect class="cls-9" x="118.19" y="101.52" width="4.17" height="4.17"/>
          <rect class="cls-9" x="126.52" y="109.85" width="4.17" height="4.17"/>
          <rect class="cls-9" x="122.35" y="114.02" width="4.17" height="4.17"/>
          <rect class="cls-9" x="118.19" y="118.19" width="4.17" height="4.17"/>
          <rect class="cls-9" x="109.85" y="109.85" width="4.17" height="4.17"/>
          <rect class="cls-9" x="114.02" y="105.69" width="4.17" height="4.17"/>
          <rect class="cls-9" x="105.69" y="114.02" width="4.17" height="4.17"/>
          <rect class="cls-9" x="114.02" y="122.35" width="4.17" height="4.17"/>
          <polygon class="cls-9" points="97.35 126.52 97.35 130.69 101.52 130.69 101.52 126.52 101.52 122.35 97.35 122.35 97.35 126.52"/>
          <rect class="cls-9" x="101.52" y="118.19" width="4.17" height="4.17"/>
          <rect class="cls-9" x="139.02" y="97.35" width="4.17" height="4.17"/>
          <rect class="cls-9" x="134.85" y="76.52" width="4.17" height="4.17"/>
          <rect class="cls-9" x="139.02" y="80.69" width="4.17" height="4.17"/>
          <polygon class="cls-9" points="130.69 84.85 126.52 84.85 122.35 84.85 118.19 84.85 114.02 84.85 109.85 84.85 105.69 84.85 101.52 84.85 97.35 84.85 93.19 84.85 89.02 84.85 84.85 84.85 80.69 84.85 76.52 84.85 72.35 84.85 68.19 84.85 64.02 84.85 59.85 84.85 55.69 84.85 51.52 84.85 47.35 84.85 47.35 89.02 51.52 89.02 51.52 93.19 55.69 93.19 55.69 89.02 59.85 89.02 64.02 89.02 68.19 89.02 72.35 89.02 76.52 89.02 80.69 89.02 84.85 89.02 89.02 89.02 93.19 89.02 97.35 89.02 101.52 89.02 105.69 89.02 109.85 89.02 114.02 89.02 118.19 89.02 122.35 89.02 126.52 89.02 130.69 89.02 130.69 93.19 134.85 93.19 134.85 89.02 139.02 89.02 139.02 84.85 134.85 84.85 130.69 84.85"/>
          <rect class="cls-9" x="143.19" y="51.52" width="4.17" height="4.17"/>
          <rect class="cls-9" x="151.52" y="59.85" width="4.17" height="4.17"/>
          <rect class="cls-9" x="147.35" y="55.69" width="4.17" height="4.17"/>
          <rect class="cls-9" x="109.85" y="126.52" width="4.17" height="4.17"/>
          <rect class="cls-9" x="101.52" y="134.85" width="4.17" height="4.17"/>
          <polygon class="cls-9" points="93.19 130.69 89.02 130.69 89.02 134.85 89.02 139.02 84.85 139.02 84.85 143.19 89.02 143.19 89.02 147.35 93.19 147.35 97.35 147.35 97.35 143.19 101.52 143.19 101.52 139.02 97.35 139.02 97.35 134.85 97.35 130.69 93.19 130.69"/>
          <rect class="cls-9" x="105.69" y="130.69" width="4.17" height="4.17"/>
          <rect class="cls-9" x="122.35" y="97.35" width="4.17" height="4.17"/>
          <rect class="cls-9" x="126.52" y="93.19" width="4.17" height="4.17"/>
          <rect class="cls-6" x="47.35" y="59.85" width="4.17" height="4.17"/>
          <polygon class="cls-6" points="51.52 64.02 51.52 68.19 55.69 68.19 59.85 68.19 59.85 64.02 55.69 64.02 51.52 64.02"/>
          <polygon class="cls-6" points="130.69 47.35 126.52 47.35 126.52 51.52 130.69 51.52 134.85 51.52 134.85 47.35 130.69 47.35"/>
          <polygon class="cls-6" points="139.02 51.52 134.85 51.52 134.85 55.69 139.02 55.69 143.19 55.69 143.19 51.52 139.02 51.52"/>
          <rect class="cls-6" x="126.52" y="72.35" width="4.17" height="4.17"/>
          <polygon class="cls-6" points="122.35 68.19 118.19 68.19 114.02 68.19 109.85 68.19 105.69 68.19 101.52 68.19 97.35 68.19 93.19 68.19 93.19 72.35 97.35 72.35 101.52 72.35 105.69 72.35 109.85 72.35 114.02 72.35 118.19 72.35 122.35 72.35 126.52 72.35 126.52 68.19 122.35 68.19"/>
          <rect class="cls-6" x="151.52" y="64.02" width="4.17" height="4.17"/>
          <rect class="cls-6" x="155.69" y="68.19" width="4.17" height="4.17"/>
          <rect class="cls-6" x="155.69" y="76.52" width="4.17" height="4.17"/>
          <rect class="cls-6" x="147.35" y="84.85" width="4.17" height="4.17"/>
          <rect class="cls-6" x="151.52" y="80.69" width="4.17" height="4.17"/>
          <rect class="cls-6" x="143.19" y="89.02" width="4.17" height="4.17"/>
          <rect class="cls-6" x="130.69" y="101.52" width="4.17" height="4.17"/>
          <rect class="cls-6" x="122.35" y="109.85" width="4.17" height="4.17"/>
          <rect class="cls-6" x="126.52" y="105.69" width="4.17" height="4.17"/>
          <rect class="cls-6" x="134.85" y="97.35" width="4.17" height="4.17"/>
          <rect class="cls-6" x="139.02" y="93.19" width="4.17" height="4.17"/>
          <rect class="cls-6" x="130.69" y="76.52" width="4.17" height="4.17"/>
          <rect class="cls-6" x="134.85" y="80.69" width="4.17" height="4.17"/>
          <rect class="cls-6" x="147.35" y="59.85" width="4.17" height="4.17"/>
          <rect class="cls-6" x="143.19" y="55.69" width="4.17" height="4.17"/>
          <polygon class="cls-6" points="122.35 43.19 118.19 43.19 114.02 43.19 109.85 43.19 105.69 43.19 101.52 43.19 97.35 43.19 93.19 43.19 89.02 43.19 84.85 43.19 80.69 43.19 76.52 43.19 72.35 43.19 72.35 47.35 76.52 47.35 80.69 47.35 84.85 47.35 89.02 47.35 93.19 47.35 97.35 47.35 101.52 47.35 105.69 47.35 109.85 47.35 114.02 47.35 118.19 47.35 122.35 47.35 126.52 47.35 126.52 43.19 122.35 43.19"/>
          <rect class="cls-6" x="105.69" y="126.52" width="4.17" height="4.17"/>
          <rect class="cls-6" x="97.35" y="134.85" width="4.17" height="4.17"/>
          <rect class="cls-6" x="101.52" y="130.69" width="4.17" height="4.17"/>
          <rect class="cls-6" x="118.19" y="97.35" width="4.17" height="4.17"/>
          <polygon class="cls-6" points="126.52 97.35 126.52 93.19 130.69 93.19 130.69 89.02 126.52 89.02 122.35 89.02 118.19 89.02 114.02 89.02 109.85 89.02 109.85 93.19 114.02 93.19 118.19 93.19 122.35 93.19 122.35 97.35 126.52 97.35"/>
          <polygon class="cls-4" points="118.19 93.19 114.02 93.19 109.85 93.19 109.85 89.02 105.69 89.02 101.52 89.02 97.35 89.02 93.19 89.02 89.02 89.02 84.85 89.02 80.69 89.02 76.52 89.02 76.52 93.19 72.35 93.19 68.19 93.19 64.02 93.19 64.02 97.35 68.19 97.35 68.19 101.52 72.35 101.52 72.35 105.69 76.52 105.69 76.52 109.85 80.69 109.85 80.69 114.02 80.69 118.19 84.85 118.19 84.85 122.35 89.02 122.35 93.19 122.35 93.19 126.52 93.19 130.69 97.35 130.69 97.35 126.52 97.35 122.35 101.52 122.35 101.52 118.19 105.69 118.19 105.69 114.02 109.85 114.02 109.85 109.85 114.02 109.85 114.02 105.69 118.19 105.69 118.19 101.52 118.19 97.35 122.35 97.35 122.35 93.19 118.19 93.19"/>
        </g>
      </g>
    </g>
  </g>
</svg>