<svg width="38" height="25" viewBox="0 0 38 25" fill="none" xmlns="http://www.w3.org/2000/svg">
<path d="M0 11.9001C0 11.0001 0.2 10.1001 0.8 9.40006C1.1 9.00006 1.6 8.60006 2.1 8.40006C8.1 5.70006 14.1 3.10006 20.1 0.40006C20.3 0.30006 20.5 0.20006 20.6 0.20006C21.4 -0.0999403 22.2 5.97239e-05 23 0.30006C26.2 1.80006 29.5 3.10006 32.8 4.50006C33.9 4.90006 34.9 5.40006 36 5.80006C36.3 5.90006 36.6 6.20006 36.6 6.50006C36.6 6.80006 36.4 7.00006 36 7.20006C33 8.60006 29.9 10.0001 26.9 11.4001C23.9 12.8001 20.9 14.2001 17.8 15.6001C17 16.0001 16.1 16.0001 15.4 15.6001C11.5 13.7001 7.8 12.0001 4 10.2001C3 9.70006 2.4 10.0001 2.2 10.9001C1.7 12.3001 2.2 13.9001 3.3 14.9001C3.5 15.0001 3.8 15.1001 4 15.2001C7.2 16.7001 10.5 18.2001 13.7 19.7001C13.9 19.8001 14 19.8001 14.1 19.6001C15.3 18.0001 17.6 17.6001 19.3 18.9001C19.5 19.0001 19.6 19.2001 19.8 19.3001C19.9 19.4001 20 19.5001 20.1 19.4001C23.7 17.7001 27.4 15.9001 31 14.2001C31.1 14.1001 31.2 14.1001 31.1 13.9001C30.6 12.0001 32 10.3001 34.2 10.1001C35.9 9.90006 37.4 11.0001 37.8 12.6001C38.1 14.3001 36.9 15.9001 35.3 16.1001C35.2 16.1001 35.1 16.1001 35 16.1001C34.2 16.2001 33.3 16.1001 32.5 15.6001C32.4 15.5001 32.2 15.5001 32.1 15.6001C28.3 17.4001 24.5 19.3001 20.7 21.1001C20.6 21.2001 20.5 21.3001 20.5 21.4001C20.3 22.7001 19.3 23.8001 18 24.0001C16.2 24.5001 14.3 23.5001 13.8 21.7001C13.8 21.5001 13.6 21.4001 13.5 21.3001C10.1 19.8001 6.8 18.2001 3.4 16.7001C2 16.1001 0.9 15.0001 0.4 13.5001C0.3 13.2001 0.2 12.8001 0.1 12.4001C0 12.5001 0 12.2001 0 11.9001ZM15.9 21.3001C15.9 21.9001 16.4 22.3001 17 22.3001C17.6 22.4001 18.1 22.0001 18.1 21.4001C18.2 20.8001 17.8 20.3001 17.2 20.3001C17.1 20.3001 17 20.3001 16.9 20.3001C16.5 20.3001 16 20.7001 15.9 21.3001ZM35.6 13.2001C35.6 12.6001 35.1 12.2001 34.5 12.2001C33.9 12.2001 33.5 12.6001 33.4 13.1001C33.4 13.7001 33.8 14.1001 34.3 14.2001H34.4C35 14.2001 35.5 13.8001 35.6 13.2001Z" fill="white"/>
</svg>
