<svg width="27" height="22" viewBox="0 0 27 22" fill="none" xmlns="http://www.w3.org/2000/svg">
<g clip-path="url(#clip0_530_249853)">
<path d="M27 2.6C26.9 2.7 26.8 2.9 26.7 3C26 3.9 25.2 4.7 24.3 5.4C24.3 5.4 24.3 5.4 24.2 5.4L24.1 5.5C24.1 5.8 24.1 6 24.1 6.3C24.1 6.9 24.1 7.5 24 8.1C23.9 9.2 23.6 10.3 23.2 11.3C22.5 13.3 21.4 15.1 20 16.7C18.3 18.6 16.2 20.1 13.8 20.9C12.9 21.2 11.9 21.5 10.9 21.6C10.4 21.7 9.9 21.7 9.4 21.8C9.1 22 8.6 22 8 22C7.4 22 6.9 21.9 6.3 21.9C5.4 21.8 4.4 21.6 3.5 21.3C2.6 21 1.7 20.6 0.8 20.1C0.6 20 0.3 19.8 0.1 19.7C0.1 19.7 0 19.7 0 19.6C2.3 19.9 4.6 19.4 6.6 18.3C7.1 18 7.6 17.7 8.1 17.3C8 17.3 7.9 17.3 7.7 17.3C6.3 17.2 5 16.6 4.1 15.5C3.6 14.9 3.2 14.3 2.9 13.6C2.9 13.5 2.9 13.5 3 13.5C3.3 13.6 3.6 13.6 4 13.6C4.4 13.6 4.9 13.5 5.3 13.4C5.3 13.4 5.3 13.4 5.4 13.4C4 12.9 2.8 12.1 2 10.9C1.3 10 1 8.9 1 7.8H1.1C1.6 8 2.1 8.2 2.6 8.3C2.9 8.4 3.2 8.4 3.5 8.4C2 7.4 1.1 5.7 1.1 3.8C1.1 2.8 1.3 1.8 1.8 1C1.8 1 1.9 1 1.9 1.1C2.9 2.3 4 3.3 5.2 4.1C6.5 5 7.9 5.7 9.4 6.1C10.2 6.3 11 6.5 11.8 6.6C12.3 6.7 12.7 6.7 13.2 6.7C13.3 6.7 13.3 6.7 13.3 6.6C13.2 6 13.2 5.4 13.2 4.8C13.3 3.6 13.8 2.6 14.6 1.7C15.4 0.8 16.4 0.2 17.6 0C18.1 0 18.5 0 19 0C20.2 0.1 21.3 0.5 22.2 1.3C22.4 1.4 22.5 1.6 22.7 1.7C22.7 1.8 22.8 1.8 22.9 1.8C23.6 1.7 24.3 1.4 24.9 1.2C25.4 1 25.8 0.8 26.2 0.5C26.2 0.5 26.2 0.5 26.3 0.5C26.1 1.1 25.8 1.7 25.4 2.2C25 2.7 24.5 3.2 23.9 3.5H24H24.1C25.1 3.3 26 3 27 2.6C27 2.6 26.9 2.6 27 2.6Z" fill="white"/>
</g>
<defs>
<clipPath id="clip0_530_249853">
<rect width="27" height="22" fill="white"/>
</clipPath>
</defs>
</svg>
